<svg width="80.72mm" height="47.877mm" version="1.1" viewBox="0 0 80.72 47.877" xmlns="http://www.w3.org/2000/svg">
 <title>Urban Ride Research</title>
 <g transform="translate(-117.04 -211.91)">
  <g transform="translate(0 18.491)" fill="none" stroke-linecap="round" stroke-linejoin="round">
   <path d="m172.52 215.38 5.2258-12.772m-2.1552-3.1881h4.9537m-2.7986 3.1881 0.50704-3.087m-17.557-0.1011h3.4373l-1.3516 3.1881 9.7385 12.772h10.516l-5.29-12.772h-14.964l-5.3853 12.772m33.36 0c0 4.2639-3.4566 7.7205-7.7205 7.7205s-7.7205-3.4566-7.7205-7.7205 3.4566-7.7205 7.7205-7.7205 7.7205 3.4566 7.7205 7.7205zm-25.64 0c0 4.2639-3.4566 7.7205-7.7205 7.7205s-7.7205-3.4566-7.7205-7.7205 3.4566-7.7205 7.7205-7.7205 7.7205 3.4566 7.7205 7.7205z" stroke="#fffa" stroke-width="2"/>
   <g stroke="#fff" stroke-width="4">
    <path d="m157.4 215.38m7.7205 0c0 4.2639-3.4566 7.7205-7.7205 7.7205s-7.7205-3.4566-7.7205-7.7205 3.4566-7.7205 7.7205-7.7205 7.7205 3.4566 7.7205 7.7205zm-12.863 5.7584 12.789 12.957m-15.367-18.716v18.716"/>
    <path d="m183.04 215.38m7.7205 0c0 4.2639-3.4566 7.7205-7.7205 7.7205s-7.7205-3.4566-7.7205-7.7205 3.4566-7.7205 7.7205-7.7205 7.7205 3.4566 7.7205 7.7205zm-12.863 5.7584 12.789 12.957m-15.367-18.716v18.716"/>
    <path d="m157.4 215.38m7.7205 0c0 4.2639-3.4566 7.7205-7.7205 7.7205s-7.7205-3.4566-7.7205-7.7205 3.4566-7.7205 7.7205-7.7205 7.7205 3.4566 7.7205 7.7205zm-12.863 5.7584 12.789 12.957m-15.367-18.716v18.716"/>
    <path d="m139.48 207.46v19.119c0 4.2639-3.4566 7.7205-7.7205 7.7205-4.2639 0-7.7205-3.4566-7.7205-7.7205v-19.119"/>
   </g>
  </g>
 </g>
</svg>